<svg xmlns="http://www.w3.org/2000/svg" width="73.719" height="82.56" viewBox="0 0 73.719 82.56">
  <defs>
    <style>
      .cls-1 {
        fill: #fff;
        fill-rule: evenodd;
      }
    </style>
  </defs>
  <path id="_-e-def_1" data-name="-e-def 1" class="cls-1" d="M488.676,1090.55a2.684,2.684,0,0,0-1.949-2.22l-33.18-9.23a2.729,2.729,0,0,0-1.446,0l-33.18,9.23a2.684,2.684,0,0,0-1.949,2.22c-0.193,1.39-4.583,34.08,6.678,50.35a52.958,52.958,0,0,0,28.54,20.58,2.9,2.9,0,0,0,1.267,0A52.955,52.955,0,0,0,482,1140.9C493.259,1124.63,488.869,1091.94,488.676,1090.55Zm-14.455,19.09-22.632,22.63a2.7,2.7,0,0,1-3.816,0l-13.993-13.99a2.692,2.692,0,0,1,0-3.81l2.779-2.78a2.686,2.686,0,0,1,3.815,0l9.307,9.3,17.946-17.94a2.7,2.7,0,0,1,3.815,0l2.779,2.78A2.692,2.692,0,0,1,474.221,1109.64Z" transform="translate(-415.969 -1079)"/>
</svg>
