<svg id="_-e-icon" data-name="-e-icon" xmlns="http://www.w3.org/2000/svg" width="84.246" height="84.25" viewBox="0 0 84.246 84.25">
  <defs>
    <style>
      .cls-1 {
        fill: #fff;
      }

      .cls-2 {
        fill: #223b84;
        fill-rule: evenodd;
      }
    </style>
  </defs>
  <circle id="Эллипс_2" data-name="Эллипс 2" class="cls-1" cx="42.123" cy="42.125" r="42.123"/>
  <path id="Forma_1" data-name="Forma 1" class="cls-2" d="M957.522,1136.14a15.633,15.633,0,0,0,11.138-4.62l7.626-7.64,7.626,7.64a15.785,15.785,0,1,0,0-22.31l-7.626,7.63-7.626-7.63A15.764,15.764,0,1,0,957.522,1136.14Zm29.9-23.42a10.81,10.81,0,1,1,0,15.28l-7.626-7.64Zm-37.528,0a10.782,10.782,0,0,1,15.252,0l7.626,7.64-7.626,7.64A10.795,10.795,0,0,1,949.9,1112.72Z" transform="translate(-934.094 -1077.47)"/>
</svg>
