<svg xmlns="http://www.w3.org/2000/svg" width="22.41" height="22.406" viewBox="0 0 22.41 22.406">
  <defs>
    <style>
      .cls-1 {
        fill: #f3b14d;
        fill-rule: evenodd;
      }
    </style>
  </defs>
  <path id="call" class="cls-1" d="M1443.1,93.122l-2.48-1.657-2.21-1.472a0.986,0.986,0,0,0-1.32.213l-1.36,1.757a0.984,0.984,0,0,1-1.25.258,15.882,15.882,0,0,1-4.44-3.425,16.185,16.185,0,0,1-3.43-4.444,0.979,0.979,0,0,1,.26-1.243l1.76-1.367a0.976,0.976,0,0,0,.21-1.314l-1.43-2.141-1.7-2.553a0.981,0.981,0,0,0-1.32-.3l-1.96,1.178a2.406,2.406,0,0,0-1.09,1.409c-0.53,1.957-.64,6.274,6.28,13.193s11.23,6.81,13.19,6.273a2.4,2.4,0,0,0,1.41-1.089l1.18-1.963A0.982,0.982,0,0,0,1443.1,93.122Z" transform="translate(-1421.12 -75.313)"/>
</svg>
