<svg id="Группа_1" data-name="Группа 1" xmlns="http://www.w3.org/2000/svg" width="288.281" height="71.063" viewBox="0 0 288.281 71.063">
  <defs>
    <style>
      .cls-1 {
        fill: #fff;
      }

      .cls-1, .cls-2, .cls-3 {
        fill-rule: evenodd;
      }

      .cls-2 {
        fill: #023887;
      }

      .cls-3 {
        fill: #ffb63a;
      }
    </style>
  </defs>
  <path id="Прямоугольник_1" data-name="Прямоугольник 1" class="cls-1" d="M251.313,93.418h3.5v35.146h-3.5V93.418Z" transform="translate(-241.344 -64.781)"/>
  <path id="Фигура_1_копия" data-name="Фигура 1 копия" class="cls-2" d="M247.982,129.214a27.928,27.928,0,0,1,13.08-3.667c10.672,0,13.272,7.115,21.536,7.115a24.026,24.026,0,0,0,12.013-3.448l1.532,2.353s-3.913,4.269-13.545,4.269-12.724-7.06-21.536-7.06a27.746,27.746,0,0,0-11.6,3.119Z" transform="translate(-241.344 -64.781)"/>
  <path id="Прямоугольник_1_копия" data-name="Прямоугольник 1 копия" class="cls-1" d="M257.432,84.89h3.5v35.132h-3.5V84.89Z" transform="translate(-241.344 -64.781)"/>
  <path id="Фигура_1" data-name="Фигура 1" class="cls-2" d="M254.5,121.316a23.821,23.821,0,0,1,6.563-1.078c8.812,0,11.9,7.06,21.536,7.06s13.545-4.269,13.545-4.269l-1.532-2.353a24.026,24.026,0,0,1-12.013,3.448c-8.264,0-10.864-7.115-21.536-7.115a25.4,25.4,0,0,0-6.587.957C254.454,117.92,254.42,121.336,254.5,121.316Zm-3.127,1.139c-1.193.509-1.912,0.9-1.912,0.9l-1.478-2.682a24.885,24.885,0,0,1,3.3-1.605C251.394,118.933,251.348,122.42,251.372,122.455Z" transform="translate(-241.344 -64.781)"/>
  <path id="Прямоугольник_1_копия_2" data-name="Прямоугольник 1 копия 2" class="cls-1" d="M263.79,75.915h3.5v35.132h-3.5V75.915Z" transform="translate(-241.344 -64.781)"/>
  <path id="Фигура_1_копия_2" data-name="Фигура 1 копия 2" class="cls-2" d="M257.632,108.635a26.766,26.766,0,0,0-3.178.694c-0.011.019-.009,3.443,0.015,3.346a27.542,27.542,0,0,1,3.147-.759C257.6,111.9,257.583,108.622,257.632,108.635Zm3.119,2.959c0.1,0,.207,0,0.311,0,8.812,0,11.9,7.06,21.536,7.06s13.545-4.269,13.545-4.269l-1.532-2.353a24.026,24.026,0,0,1-12.013,3.448c-8.264,0-10.864-7.115-21.536-7.115-0.123,0-.21,0-0.332,0C260.735,108.44,260.744,111.558,260.751,111.594Zm-9.424,2.234c-1.166.5-1.867,0.883-1.867,0.883l-1.478-2.682a24.954,24.954,0,0,1,3.366-1.633C251.379,110.4,251.408,113.833,251.327,113.828Z" transform="translate(-241.344 -64.781)"/>
  <path id="Прямоугольник_1_копия_3" data-name="Прямоугольник 1 копия 3" class="cls-3" d="M265.6,64.779l2.786,2.123L244.133,98.733l-2.787-2.122Z" transform="translate(-241.344 -64.781)"/>
  <path id="УКРГIДРОКОМ" class="cls-1" d="M286.908,104.129l8.972-17.912h-7.595l-4.167,9.107-4.133-9.107h-7.6l7.9,15.761a2.494,2.494,0,0,1-2.251,1.075,5.133,5.133,0,0,1-2.89-1.008l-2.756,5.175a9.961,9.961,0,0,0,6.251,1.815,8.568,8.568,0,0,0,8.267-4.907h0ZM310.6,96.635l8.469-10.418h-8.3l-5.881,8.4v-8.4H298.1v22.415h6.788v-6.218l1.244-1.68,5.04,7.9h8.267Zm17.844,4.94h5.176a7.876,7.876,0,0,0,5.931-2.2,8.1,8.1,0,0,0,0-10.955,7.879,7.879,0,0,0-5.931-2.2H321.655v22.415h6.788v-7.058Zm0-5.914V92.132h4.3a2.309,2.309,0,0,1,1.479.454,1.6,1.6,0,0,1,.571,1.327,1.558,1.558,0,0,1-.571,1.294,2.309,2.309,0,0,1-1.479.454h-4.3ZM351.7,92.132h10.216V86.218h-17v22.415H351.7v-16.5Zm20.9-5.915h-6.789v22.415H372.6V86.218Zm10.283,26.549v-4.133h11.124v4.133H400.8V102.718h-1.949v-16.5H381.338L379.96,97.509a8.543,8.543,0,0,1-1.277,4.117,4.118,4.118,0,0,1-2.587,1.428v9.712h6.788Zm4.57-20.634h4.6v10.586h-7.527a7.949,7.949,0,0,0,2.184-4.7Zm23.39,9.443h5.175a7.876,7.876,0,0,0,5.931-2.2,8.1,8.1,0,0,0,0-10.955,7.879,7.879,0,0,0-5.931-2.2H404.055v22.415h6.789v-7.058Zm0-5.914V92.132h4.3a2.307,2.307,0,0,1,1.479.454,1.593,1.593,0,0,1,.571,1.327,1.555,1.555,0,0,1-.571,1.294,2.307,2.307,0,0,1-1.479.454h-4.3Zm39.788,1.781a10.854,10.854,0,0,0-3.511-8.351,13.438,13.438,0,0,0-17.509,0,11.685,11.685,0,0,0,0,16.7,13.438,13.438,0,0,0,17.509,0A10.853,10.853,0,0,0,450.632,97.442Zm-17.643,0a5.659,5.659,0,0,1,1.5-4,5.476,5.476,0,0,1,7.763,0,6.1,6.1,0,0,1,0,8,5.477,5.477,0,0,1-7.763,0A5.658,5.658,0,0,1,432.989,97.442Zm33.572-.806,8.469-10.418h-8.3l-5.881,8.4v-8.4H454.06v22.415h6.788v-6.218l1.244-1.68,5.041,7.9H475.4ZM499.6,97.442a10.855,10.855,0,0,0-3.512-8.351,13.438,13.438,0,0,0-17.509,0,11.685,11.685,0,0,0,0,16.7,13.438,13.438,0,0,0,17.509,0A10.854,10.854,0,0,0,499.6,97.442Zm-17.643,0a5.659,5.659,0,0,1,1.5-4,5.476,5.476,0,0,1,7.763,0,6.1,6.1,0,0,1,0,8,5.477,5.477,0,0,1-7.763,0A5.658,5.658,0,0,1,481.953,97.442Zm47.686-11.224h-9.376l-3.932,10.754L512.4,86.218h-9.376v22.415h6.789V95.157l5.007,13.476h3.024l5.008-13.476v13.476h6.788V86.218Z" transform="translate(-241.344 -64.781)"/>
</svg>
