<svg id="mouse" xmlns="http://www.w3.org/2000/svg" width="25.68" height="86.031" viewBox="0 0 25.68 86.031">
  <defs>
    <style>
      .cls-1 {
        fill: none;
        stroke: #fff;
        stroke-width: 1px;
      }

      .cls-1, .cls-2, .cls-3, .cls-4, .cls-5 {
        fill-rule: evenodd;
      }

      .cls-2, .cls-3, .cls-4, .cls-5 {
        fill: #fff;
      }

      .cls-3 {
        opacity: 0.75;
      }

      .cls-4 {
        opacity: 0.5;
      }

      .cls-5 {
        opacity: 0.25;
      }
    </style>
  </defs>
  <path id="Прямоугольник_скругл._углы_1" data-name="Прямоугольник, скругл. углы 1" class="cls-1" d="M1678.25,791.5a12.363,12.363,0,0,1,12.36,12.357V823.9a12.36,12.36,0,0,1-24.72,0V803.854A12.363,12.363,0,0,1,1678.25,791.5Z" transform="translate(-1665.41 -791)"/>
  <path id="Прямоугольник_скругл._углы_2" data-name="Прямоугольник, скругл. углы 2" class="cls-2" d="M1678.3,795.567a0.518,0.518,0,0,1,.52.519v11.173a0.52,0.52,0,0,1-1.04,0V796.086A0.518,0.518,0,0,1,1678.3,795.567Z" transform="translate(-1665.41 -791)"/>
  <path id="Прямоугольник_скругл._углы_3" data-name="Прямоугольник, скругл. углы 3" class="cls-2" d="M1678.42,842.369a2.334,2.334,0,1,1-2.33,2.334A2.33,2.33,0,0,1,1678.42,842.369Z" transform="translate(-1665.41 -791)"/>
  <path id="Прямоугольник_скругл._углы_3_копия" data-name="Прямоугольник, скругл. углы 3 копия" class="cls-3" d="M1678.42,852.369a2.334,2.334,0,1,1-2.33,2.334A2.33,2.33,0,0,1,1678.42,852.369Z" transform="translate(-1665.41 -791)"/>
  <path id="Прямоугольник_скругл._углы_3_копия_2" data-name="Прямоугольник, скругл. углы 3 копия 2" class="cls-4" d="M1678.42,862.369a2.334,2.334,0,1,1-2.33,2.334A2.33,2.33,0,0,1,1678.42,862.369Z" transform="translate(-1665.41 -791)"/>
  <path id="Прямоугольник_скругл._углы_3_копия_3" data-name="Прямоугольник, скругл. углы 3 копия 3" class="cls-5" d="M1678.42,872.369a2.334,2.334,0,1,1-2.33,2.334A2.33,2.33,0,0,1,1678.42,872.369Z" transform="translate(-1665.41 -791)"/>
</svg>
